<?xml version="1.0" encoding="UTF-8" standalone="no"?>
<svg
   width="86"
   height="86"
   viewBox="0 0 86 86"
   fill="none"
   version="1.1"
   id="svg25"
   sodipodi:docname="icon-launcher-settings.svg"
   inkscape:version="1.2.2 (b0a8486541, 2022-12-01)"
   xmlns:inkscape="http://www.inkscape.org/namespaces/inkscape"
   xmlns:sodipodi="http://sodipodi.sourceforge.net/DTD/sodipodi-0.dtd"
   xmlns="http://www.w3.org/2000/svg"
   xmlns:svg="http://www.w3.org/2000/svg">
  <sodipodi:namedview
     id="namedview27"
     pagecolor="#ffffff"
     bordercolor="#000000"
     borderopacity="0.25"
     inkscape:showpageshadow="2"
     inkscape:pageopacity="0.0"
     inkscape:pagecheckerboard="0"
     inkscape:deskcolor="#d1d1d1"
     showgrid="false"
     inkscape:zoom="9.3488372"
     inkscape:cx="43.053483"
     inkscape:cy="43.053483"
     inkscape:window-width="1920"
     inkscape:window-height="1027"
     inkscape:window-x="0"
     inkscape:window-y="0"
     inkscape:window-maximized="1"
     inkscape:current-layer="svg25" />
  <g
     clip-path="url(#clip0_1582_44089)"
     id="g13">
    <mask
       id="mask0_1582_44089"
       maskUnits="userSpaceOnUse"
       x="0"
       y="0"
       width="86"
       height="86"
       style="mask-type:alpha">
      <path
         d="M0 30.0246C0 14.8691 0 9.41638 4.70819 4.70819C9.41638 0 14.8691 0 32.1495 0H53.8505C71.1308 0 76.5836 0 81.2918 4.70819C86 9.41638 86 14.8691 86 32.1495V53.8505C86 71.1308 86 76.5836 81.2918 81.2918C76.5836 86 71.1308 86 53.8505 86H32.1495C14.8691 86 9.41638 86 4.70819 81.2918C0 76.5836 0 71.1308 0 53.8505V30.0246Z"
         fill="white"
         id="path2" />
    </mask>
    <g
       mask="url(#mask0_1582_44089)"
       id="g11">
      <rect
         width="86"
         height="86"
         fill="url(#paint0_linear_1582_44089)"
         id="rect5" />
      <circle
         cx="42.179001"
         cy="42.647999"
         fill="#d9d9d9"
         fill-opacity="0.83"
         id="circle7"
         inkscape:highlight-color="#ffffff"
         style="opacity:1;fill:#ffffff;stroke-width:1.81818"
         r="20" />
      <path
         fill-rule="evenodd"
         clip-rule="evenodd"
         d="M40.3517 13.2537C40.8513 10.2488 45.1487 10.2488 45.6483 13.2537L46.1575 16.3154C46.5594 18.7322 49.6999 19.4031 51.0452 17.3595L52.7493 14.7706C54.4219 12.2297 58.3477 13.9864 57.5881 16.9358L56.8141 19.9409C56.2031 22.3131 58.8007 24.2097 60.8567 22.8927L63.4613 21.2243C66.0176 19.5868 68.893 22.7963 67.0054 25.1802L65.0822 27.6091C63.564 29.5265 65.1693 32.3209 67.5806 31.9582L70.6352 31.4987C73.6333 31.0478 74.9612 35.1552 72.272 36.5614L69.5321 37.9942C67.3691 39.1252 67.7048 42.3343 70.0544 42.9886L73.0308 43.8175C75.9522 44.631 75.503 48.9262 72.4772 49.1116L69.3943 49.3004C66.9606 49.4495 65.9685 52.5183 67.8502 54.0765L70.2338 56.0505C72.5734 57.9879 70.4247 61.7281 67.5855 60.6605L64.6927 59.5728C62.4091 58.7142 60.2608 61.1122 61.3491 63.3049L62.7279 66.0825C64.0811 68.8088 60.6045 71.3473 58.4428 69.2114L56.2403 67.0353C54.5016 65.3174 51.5685 66.6299 51.6754 69.0779L51.8108 72.179C51.9436 75.2227 47.7402 76.1207 46.6298 73.2858L45.4985 70.3974C44.6053 68.1173 41.3947 68.1173 40.5016 70.3974L39.3702 73.2858C38.2598 76.1206 34.0564 75.2227 34.1893 72.179L34.3246 69.0779C34.4315 66.6299 31.4984 65.3174 29.7597 67.0353L27.5573 69.2114C25.3955 71.3473 21.9189 68.8088 23.2721 66.0825L24.6509 63.3049C25.7392 61.1122 23.5909 58.7142 21.3073 59.5728L18.4145 60.6605C15.5753 61.7281 13.4266 57.9879 15.7662 56.0505L18.1498 54.0765C20.0315 52.5183 19.0394 49.4495 16.6057 49.3004L13.5228 49.1116C10.497 48.9262 10.0478 44.631 12.9692 43.8175L15.9456 42.9886C18.2953 42.3343 18.6309 39.1252 16.468 37.9942L13.728 36.5614C11.0388 35.1553 12.3667 31.0478 15.3648 31.4987L18.4194 31.9582C20.8307 32.3209 22.436 29.5265 20.9178 27.6091L18.9946 25.1802C17.107 22.7963 19.9824 19.5868 22.5388 21.2243L25.1433 22.8927C27.1994 24.2097 29.7969 22.3131 29.1859 19.9409L28.4119 16.9358C27.6523 13.9864 31.5781 12.2297 33.2507 14.7706L34.9548 17.3595C36.3001 19.4031 39.4407 18.7322 39.8425 16.3154L40.3517 13.2537ZM43 62C53.4934 62 62 53.4934 62 43C62 32.5066 53.4934 24 43 24C32.5066 24 24 32.5066 24 43C24 53.4934 32.5066 62 43 62Z"
         fill="white"
         id="path9" />
    </g>
  </g>
  <defs
     id="defs23">
    <linearGradient
       id="paint0_linear_1582_44089"
       x1="0"
       y1="0"
       x2="86"
       y2="86"
       gradientUnits="userSpaceOnUse">
      <stop
         stop-color="#0028F1"
         stop-opacity="0.97"
         id="stop15" />
      <stop
         offset="1"
         stop-color="#258ABA"
         stop-opacity="0.92"
         id="stop17" />
    </linearGradient>
    <clipPath
       id="clip0_1582_44089">
      <rect
         width="86"
         height="86"
         fill="white"
         id="rect20" />
    </clipPath>
  </defs>
</svg>
